<?xml version="1.0" encoding="UTF-8"?>
<svg id="b" data-name="eyes" xmlns="http://www.w3.org/2000/svg" width="200" height="200" viewBox="0 0 200 200">
  <g>
    <path d="M75.629,104.992c-5.646,0-18.868,0-18.868-12.938,0-10.779,10.91-16.418,16.759-16.418,9.244,0,18.807,5.938,18.807,15.873,0,8.065-6.71,13.483-16.697,13.483Z" fill="#fff"/>
    <path d="M73.52,77.136c10.447,0,17.306,6.857,17.306,14.373s-6.513,11.983-15.197,11.983-17.367-1.416-17.367-11.438,10.209-14.918,15.258-14.918M73.52,74.136c-6.553,0-18.258,5.988-18.258,17.918,0,14.438,14.797,14.438,20.367,14.438,10.714,0,18.197-6.161,18.197-14.983,0-4.578-2.098-9.046-5.755-12.259-3.754-3.298-8.921-5.114-14.551-5.114h0Z" fill="#241f20"/>
  </g>
  <g>
    <path d="M125.817,98.792c-.383,0-.776-.003-1.176-.009-10.146-.162-15.187-1.426-15.412-3.868l-.093-.993.881-.469c.301-.16,7.488-3.923,17.802-3.923,5.196,0,10.281.966,15.115,2.872l2.216.874-1.745,1.621c-.429.399-4.571,3.896-17.586,3.896h-.002Z" fill="#fff"/>
    <path d="M127.82,91.029c4.391,0,9.358.715,14.564,2.767,0,0-3.765,3.495-16.566,3.495-.376,0-.761-.003-1.153-.009-13.729-.218-13.941-2.506-13.941-2.506,0,0,7.039-3.747,17.097-3.747M127.82,88.029c-10.684,0-18.192,3.932-18.506,4.099l-1.762.938.184,1.987c.323,3.482,5.371,5.046,16.881,5.228.408.006.809.01,1.201.01,13.306,0,17.835-3.579,18.607-4.297l3.492-3.242-4.433-1.747c-5.009-1.975-10.28-2.976-15.665-2.976h0Z" fill="#241f20"/>
  </g>
  <path d="M98.114,67.896c3.619,4.733,2.506,13.152-3.403,15.469.735-1.315,1.49-2.406,1.951-3.646,1.585-3.778,1.49-7.736,1.452-11.823h0Z" fill="#241f20"/>
  <path d="M103.004,70.266c.034,4.91.654,8.681,3.756,12.419-5.493-.921-7.275-8.503-3.756-12.419h0Z" fill="#241f20"/>
  <g>
    <path d="M114.277,87.358c-.282,0-.566-.013-.852-.039-6.355-.58-8.22-5.798-8.317-8.476l-.042-1.153,1.146.122c.603.064,1.204.097,1.788.097,4.862,0,8.4-2.186,12.146-4.5,3.867-2.39,7.866-4.861,13.437-4.861,11.646,0,15.474,7.756,15.631,8.087l.84,1.765-1.924-.352c-.025-.004-2.607-.468-6.573-.468-2.348,0-4.708.16-7.018.475-3.517.48-6.671,2.63-9.722,4.709-3.467,2.362-6.74,4.594-10.54,4.594Z" fill="#241f20"/>
    <path d="M133.583,69.547c11.148,0,14.728,7.517,14.728,7.517,0,0-2.634-.484-6.754-.484-2.06,0-4.492.121-7.152.484-7.696,1.051-13.317,9.294-20.128,9.294-.251,0-.505-.011-.76-.035-7.158-.654-7.409-7.517-7.409-7.517.653.069,1.283.102,1.894.102,10.339,0,15.056-9.362,25.582-9.362M133.583,67.547c-5.854,0-9.977,2.547-13.963,5.011-3.621,2.237-7.04,4.351-11.619,4.351-.549,0-1.115-.031-1.683-.091l-2.294-.243.084,2.305c.109,2.982,2.178,8.792,9.226,9.435.311.028.628.043.942.043,4.108,0,7.665-2.424,11.104-4.767,2.955-2.014,6.011-4.097,9.295-4.545,2.264-.309,4.579-.466,6.881-.466,3.859,0,6.37.447,6.395.452l3.841.696-1.676-3.524c-.168-.353-4.263-8.657-16.533-8.657h0Z" fill="#241f20"/>
  </g>
  <g>
    <path d="M89.417,85.364c-1.151,0-3.275-1.041-7.244-3.035-5.212-2.619-12.35-6.206-16.783-6.334-.239-.007-.478-.01-.715-.01-6.83,0-12.475,2.832-12.531,2.86l-2.294,1.167.903-2.41c.04-.107,4.174-10.688,18.135-10.688,5.657,0,9.927,2.328,13.693,4.381,2.029,1.107,3.947,2.153,5.894,2.743,5.566,1.687,8.927,2.028,8.96,2.032l.906.088-.003.911c0,.079-.135,7.907-8.833,8.293l-.088.002Z" fill="#241f20"/>
    <path d="M68.888,67.913c8.384,0,13.547,5.338,19.297,7.081,5.75,1.743,9.153,2.07,9.153,2.07,0,0-.03,6.95-7.877,7.299-.014,0-.029,0-.044,0-2.569,0-16.531-9.153-23.998-9.369-.249-.007-.497-.011-.743-.011-7.173,0-12.987,2.969-12.987,2.969,0,0,3.768-10.039,17.198-10.039M68.888,65.913c-14.647,0-18.897,10.874-19.071,11.337l-1.813,4.831,4.595-2.347c.051-.026,5.505-2.75,12.078-2.75.227,0,.455.003.685.01,4.211.122,11.233,3.651,16.361,6.228,4.335,2.179,6.311,3.142,7.694,3.142h.044l.089-.003c9.638-.429,9.787-9.199,9.788-9.288l.008-1.825-1.816-.174c-.03-.003-3.314-.341-8.764-1.993-1.848-.56-3.722-1.582-5.706-2.664-3.872-2.111-8.26-4.503-14.172-4.503h0Z" fill="#241f20"/>
  </g>
  <ellipse cx="79.188" cy="97.827" rx="3.814" ry="3.54" fill="#241f20"/>
  <ellipse cx="123.061" cy="94.287" rx="3.814" ry="3.54" fill="#241f20"/>
</svg>