<?xml version="1.0" encoding="UTF-8"?>
<svg id="b" data-name="head" xmlns="http://www.w3.org/2000/svg" width="200" height="200" viewBox="0 0 200 200">
  <g>
    <path d="M129.782,182.837c-10.547,0-22.149-5.922-25.01-7.475-3.007.896-14.953,4.224-26.344,4.224-3.298,0-6.293-.286-8.902-.852-11.503-2.492-22.758-24.399-30.976-40.396-2.502-4.868-4.662-9.073-6.304-11.665-3.216-5.074-3.883-14.878-1.983-29.139,1.712-12.854,4.994-25.558,6.325-30.423,2.397-8.757,1.215-15.829.071-22.668-.604-3.613-1.229-7.349-1.312-11.251-.132-6.158,8.561-10.517,27.354-13.718,13.637-2.322,32.139-3.93,54.99-4.779,1.731-.064,3.436-.097,5.065-.097,34.661,0,38.969,14.361,41.818,23.864l.036.12c.88,2.932.596,5.399-.843,7.333-1.538,2.067-4.097,3.021-6.293,3.458,6.854,7.267,3.941,13.368,2.122,17.175-.67,1.404-1.363,2.856-1.144,3.533.249.763.971,2.759,1.97,5.521,7.465,20.639,15.071,42.58,14.893,48.831-.242,8.496-9.934,31.094-10.347,32.051l-.085.197-.131.17c-.518.666-12.817,16.409-25.042,23.58-2.72,1.596-6.062,2.405-9.93,2.405h-.002Z" fill="#fff"/>
    <path d="M122.759,16.281c33.558.001,37.535,13.761,40.242,22.785,2.579,8.595-7.345,8.985-9.169,8.985-.183,0-.284-.004-.284-.004,13.472,10.872,1.891,18.198,3.309,22.556,1.418,4.357,17.017,45.511,16.78,53.783-.236,8.272-10.21,31.434-10.21,31.434,0,0-12.479,16.071-24.564,23.162-2.667,1.564-5.804,2.174-9.079,2.174-11.567,0-24.818-7.609-24.818-7.609,0,0-13.767,4.359-26.537,4.359-2.963,0-5.875-.235-8.546-.814-14.181-3.072-29.307-40.415-36.214-51.317-6.908-10.902.763-44.402,4.544-58.217,3.781-13.815-.945-23.291-1.182-34.399-.236-11.108,42.542-15.362,80.726-16.78,1.739-.065,3.402-.096,5.003-.096M122.759,12.916h0c-1.648,0-3.374.033-5.128.098-22.926.851-41.501,2.467-55.21,4.802-20.041,3.413-28.908,8.167-28.754,15.413.086,4.023.721,7.82,1.334,11.492,1.165,6.967,2.265,13.547-.034,21.947-1.34,4.897-4.645,17.686-6.371,30.645-1.98,14.87-1.251,24.768,2.229,30.261,1.601,2.527,3.745,6.7,6.227,11.532,10.853,21.125,20.761,38.812,32.117,41.273,2.726.591,5.841.89,9.259.89,10.889,0,22.254-2.975,26.158-4.099,3.757,1.976,14.919,7.35,25.196,7.35,4.172,0,7.8-.887,10.782-2.636,12.5-7.333,24.994-23.323,25.52-24l.263-.339.169-.394c1.047-2.431,10.236-24.003,10.484-32.668.186-6.515-7.096-27.617-14.992-49.45-.897-2.48-1.617-4.471-1.901-5.318.078-.488.635-1.654,1.011-2.441,1.725-3.611,4.669-9.774-.672-16.986,1.747-.667,3.447-1.718,4.674-3.368,1.22-1.639,2.401-4.5,1.105-8.821l-.036-.12c-2.811-9.373-7.516-25.061-43.429-25.063h0Z" fill="#241f20"/>
  </g>
  <g opacity=".15">
    <path d="M163.07,43.706c.452-1.192.512-2.706-.069-4.641-2.836-9.454-7.062-24.107-45.245-22.689-38.184,1.418-80.962,5.672-80.726,16.78.038,1.765.195,3.487.408,5.194,3.565-4.442,8.437-8.884,14.251-10.078,12.616-2.591,25.829,4.664,41.374,3.886,15.545-.777,23.577-9.586,39.381-9.327,13.572.222,25.799,10.571,30.625,20.874Z" fill="#fff"/>
  </g>
  <g opacity=".15">
    <path d="M163.427,155.819s9.228-21.432,10.138-30.424c-8.224,15.469-27.579,48.744-41.897,48.744-18.654,0-17.877-8.291-27.168-8.291s-19.726,7.254-29.985,6.477c-6.646-.504-23.534-20.794-34.605-35.025,7.848,15.275,19.183,37.452,29.974,39.79,14.181,3.072,35.083-3.545,35.083-3.545,0,0,21.811,12.526,33.897,5.436,12.086-7.09,24.564-23.162,24.564-23.162Z" fill="#241f20"/>
  </g>
</svg>