<?xml version="1.0" encoding="UTF-8"?>
<svg id="b" data-name="mouth" xmlns="http://www.w3.org/2000/svg" width="200" height="200" viewBox="0 0 200 200">
  <path d="M95.373,113.991c3.853-1.844,11.825-4.454,13.948.953.861,2.127.272,4.885-1.164,6.622-.731.932-1.431,1.598-2.465,2.266,0,0-.117-3.035-.117-3.035,4.055,1.859,10.419,7.366,5.234,11.526-3.935,2.689-8.838,2.215-12.686.128,3.622.526,8.205.137,10.845-2.245,2.454-2.253-3.138-5.272-4.923-6.311,0,0-2.695-1.454-2.695-1.454l2.578-1.581c1.647-1.064,3.13-2.983,2.549-5.048-.657-3.006-8.542-1.941-11.105-1.821h0Z" fill="#231f20"/>
</svg>